<svg width="96" height="52" viewBox="0 0 96 52" fill="none" xmlns="http://www.w3.org/2000/svg">
<path d="M35.7333 17.2233L30.1214 40.0625H25.0968L30.7087 17.2233H35.7333ZM49.9601 36.1146L49.0466 39.671C49.0466 39.671 45.3597 40.193 40.2045 40.193C35.963 40.193 34.1685 38.8553 35.3104 34.2222L37.0723 27.0768C38.2143 22.4763 40.6287 21.1386 44.8703 21.1386C50.0907 21.1386 53.5492 21.4322 53.5492 21.4322L52.6356 25.217H44.6745C43.1084 25.217 42.2601 25.7717 41.8685 27.403L40.2698 33.9285C39.8783 35.5273 40.4329 36.1146 41.999 36.1146H49.9601ZM67.1592 21.0407C71.4007 21.0407 73.13 22.6394 71.988 27.2399L70.324 34.0264C69.1821 38.6269 66.6697 40.2256 62.4282 40.2256H57.6972C53.4556 40.2256 51.7264 38.6269 52.8683 34.0264L54.5323 27.2399C55.6743 22.6394 58.1866 21.0407 62.4282 21.0407H67.1592ZM62.6239 36.2451C64.2227 36.2451 65.071 35.6904 65.4625 34.059L67.1592 27.1094C67.5181 25.5107 66.996 24.9234 65.3973 24.9234H62.2324C60.6663 24.9234 59.8506 25.5107 59.4591 27.1094L57.7624 34.059C57.3709 35.6904 57.893 36.2451 59.4591 36.2451H62.6239ZM72.1481 40.0625L76.7486 21.3017H81.6427L81.3164 22.6394C82.9151 21.9216 85.0359 21.1059 86.6347 21.1059H87.5482C91.6593 21.1059 93.4864 22.15 92.3771 26.6852L89.0817 40.0625H84.1876L87.3851 27.1747C87.7766 25.5759 87.1893 25.1191 85.5906 25.1191H84.8402C83.6003 25.1191 82.0342 25.7064 80.4681 26.0653L77.0422 40.0625H72.1481Z" fill="white"/>
<g clip-path="url(#clip0_2914_19439)">
<path d="M-0.00292969 51.9929L34.6637 6.07031L6.46246 15.682L14.1911 20.4611L-0.00292969 51.9929Z" fill="#E9522B"/>
<path d="M26.7041 4.13997C26.7041 6.40481 24.8136 8.33561 22.6162 8.31779C20.4478 8.29997 18.5973 6.39591 18.6084 4.1912C18.6173 1.89518 20.4878 -0.00666339 22.7363 1.75485e-05C24.927 0.00669849 26.7041 1.86177 26.7041 4.13997Z" fill="#E9522B"/>
</g>
<defs>
<clipPath id="clip0_2914_19439">
<rect width="34.6667" height="52" fill="white"/>
</clipPath>
</defs>
</svg>
